<svg xmlns="http://www.w3.org/2000/svg" viewBox="0 0 381.65 383.86"><defs><style>.cls-1{fill:#fff;}.cls-2{fill:#97c93d;}.cls-3{fill:#66717e;}</style></defs><title>food</title><g id="Layer_2" data-name="Layer 2"><g id="Layer_1-2" data-name="Layer 1"><path class="cls-1" d="M375.62,191.94c0,102.66-82.76,185.89-184.81,185.89S6,294.6,6,191.94,88.75,6,190.81,6,375.62,89.27,375.62,191.94"/><path class="cls-2" d="M190.81,383.86C85.6,383.86,0,297.76,0,191.94S85.6,0,190.81,0,381.65,86.1,381.65,191.94,296,383.86,190.81,383.86Zm0-371.81c-98.56,0-178.76,80.7-178.76,179.89S92.25,371.8,190.81,371.8s178.78-80.69,178.78-179.86S289.39,12.05,190.81,12.05Z"/><path class="cls-3" d="M283.23,247.7a98.17,98.17,0,0,1-161.52,0,3.54,3.54,0,0,0-5.82,4,105.23,105.23,0,0,0,173.16,0,3.54,3.54,0,0,0-5.82-4"/><path class="cls-3" d="M143.52,112.62a3.48,3.48,0,0,0,2-.66,97.53,97.53,0,0,1,56.9-18.17c.92,0,1.84,0,2.76,0a97.11,97.11,0,0,1,58.51,21.43,3.55,3.55,0,0,0,4.43-5.54,104.24,104.24,0,0,0-62.73-23c-1,0-2-.05-3-.05a104.52,104.52,0,0,0-61,19.49,3.54,3.54,0,0,0,2.06,6.42"/><path class="cls-3" d="M202.47,262.76a70.69,70.69,0,0,0,68.75-53.71,3.54,3.54,0,0,0-6.88-1.71,63.74,63.74,0,1,1-10.18-52.73,3.54,3.54,0,1,0,5.73-4.16,70.83,70.83,0,1,0-57.42,112.31"/><path class="cls-3" d="M289.47,198.67c-25.48-45.15-1.1-84,11.14-99.14v99.14ZM307.44,89a2.11,2.11,0,0,0-.16-.34,3.32,3.32,0,0,0-.5-.74,2.85,2.85,0,0,0-.23-.26,3.4,3.4,0,0,0-1-.69h0a3.47,3.47,0,0,0-1.22-.26l-.14,0a1.42,1.42,0,0,0-.2,0,4,4,0,0,0-1,.19c-.1,0-.2.06-.29.1a3.7,3.7,0,0,0-1,.66l0,0c-1.24,1.2-54,54-17.27,116.26a3.52,3.52,0,0,0,3,1.74h13.19v87.86a3.54,3.54,0,0,0,7.08,0V90.25a3.42,3.42,0,0,0-.25-1.23"/><path class="cls-3" d="M127.64,136.82V90.25a3.54,3.54,0,1,0-7.08,0v46.57a19.8,19.8,0,0,1-16.22,19.43v-66a3.55,3.55,0,0,0-7.09,0v66A19.8,19.8,0,0,1,81,136.82V90.25a3.54,3.54,0,1,0-7.08,0v46.57a26.86,26.86,0,0,0,23.3,26.58V293.61a3.55,3.55,0,0,0,7.09,0V163.4a26.86,26.86,0,0,0,23.3-26.58"/></g></g></svg>